<svg xmlns="http://www.w3.org/2000/svg" viewBox="0 0 720 860">
  <rect width="720" height="860" fill="#101713"/>
  <rect x="70" y="50" width="580" height="760" rx="58" fill="#17201b" stroke="#334139" stroke-width="5"/>
  <rect x="275" y="86" width="170" height="10" rx="5" fill="#fffefa" opacity=".28"/>
  <text x="120" y="160" font-family="Arial, sans-serif" font-size="42" font-weight="700" fill="#fffefa">Today's route</text>
  <rect x="120" y="205" width="480" height="155" rx="28" fill="#fffefa" opacity=".09"/>
  <text x="150" y="260" font-family="Arial, sans-serif" font-size="22" font-weight="700" fill="#b8c5bc">Tue - North crew</text>
  <text x="150" y="310" font-family="Arial, sans-serif" font-size="34" font-weight="700" fill="#fffefa">Garden cleanup</text>
  <rect x="120" y="390" width="480" height="62" rx="18" fill="#fffefa" opacity=".08"/>
  <circle cx="155" cy="421" r="13" fill="#73b987"/>
  <text x="190" y="431" font-family="Arial, sans-serif" font-size="24" fill="#fffefa">Confirm access</text>
  <rect x="120" y="470" width="480" height="62" rx="18" fill="#fffefa" opacity=".08"/>
  <circle cx="155" cy="501" r="13" fill="#b86f42"/>
  <text x="190" y="511" font-family="Arial, sans-serif" font-size="24" fill="#fffefa">Load materials</text>
  <rect x="120" y="550" width="480" height="62" rx="18" fill="#fffefa" opacity=".08"/>
  <circle cx="155" cy="581" r="13" fill="#b86f42"/>
  <text x="190" y="591" font-family="Arial, sans-serif" font-size="24" fill="#fffefa">Client sign-off</text>
  <rect x="120" y="655" width="220" height="76" rx="24" fill="#274633"/>
  <text x="180" y="704" font-family="Arial, sans-serif" font-size="24" font-weight="700" fill="#fffefa">Start route</text>
  <rect x="370" y="655" width="230" height="76" rx="24" fill="#fffefa" opacity=".12"/>
  <text x="430" y="704" font-family="Arial, sans-serif" font-size="24" font-weight="700" fill="#fffefa">Finish job</text>
</svg>
